<svg width="535" height="1070" viewBox="0 0 535 1070" fill="none" xmlns="http://www.w3.org/2000/svg">
<path fill-rule="evenodd" clip-rule="evenodd" d="M295.484 828.396C294.104 746.613 264.447 574.219 260.186 529.819C255.927 485.418 271.08 470.38 285.608 477.706C300.137 485.034 304.484 587.478 304.484 587.478C304.484 587.478 305.485 607.528 309.277 630.36C322.985 712.9 313.363 829.57 313.363 829.57C313.363 829.57 310.706 837.17 302.664 836.157C294.623 835.145 295.484 828.396 295.484 828.396Z" fill="#FFC999"/>
<path fill-rule="evenodd" clip-rule="evenodd" d="M312.831 831.878C313.013 832.715 315.745 802.773 315.613 793.944C304.273 795.507 293.789 794.391 293.789 794.391C293.789 794.391 295.286 828.53 294.859 831.878C302.988 837.01 312.831 831.878 312.831 831.878Z" fill="#597EF7"/>
<path fill-rule="evenodd" clip-rule="evenodd" d="M310.502 872.39C309.094 884.226 302.989 890.487 296.69 891.18C288.891 892.039 280.398 889.746 279.026 882.454C277.46 874.132 281.566 869.875 286.156 857.973C290.744 846.071 292.934 835.894 294.644 827.414C294.644 827.414 300.494 823.845 298.925 834.109C297.653 842.419 294.572 865.795 289.153 867.429C294.431 866.984 305.272 871.298 305.272 871.298C305.272 871.298 301.42 865.05 301.705 862.967C301.991 860.886 305.178 839.547 305.342 833.217C305.505 826.957 310.714 827.712 313.224 828.444C314.005 828.671 314.503 829.458 314.408 830.298C314.169 832.384 311.169 866.787 310.502 872.39Z" fill="#4E5C93"/>
<path fill-rule="evenodd" clip-rule="evenodd" d="M307.697 841.026C307.697 841.026 314.203 826.821 307.697 825.407C302.561 824.291 297.641 824.068 296.999 825.407C296.76 825.905 296.784 830.539 295.074 840.134C293.075 851.335 287.966 864.472 286.086 867.134C283.091 871.372 286.301 871.596 293.575 873.604C300.85 875.612 303.417 875.612 305.343 871.596C307.269 867.579 307.269 849.728 307.697 841.026Z" fill="#4E5C93"/>
<path d="M294.151 844.979C294.303 844.571 294.744 844.369 295.135 844.527C296.099 844.919 297.146 845.452 298.265 846.11C299.325 846.734 300.436 847.461 301.579 848.272C302.944 849.239 304.286 850.274 305.551 851.309L306.061 851.731C306.225 851.868 306.381 851.999 306.53 852.125L307.19 852.695C307.768 853.208 307.347 854.191 306.595 854.084C305.154 853.879 303.418 853.98 301.455 854.35C299.667 854.686 297.755 855.231 295.795 855.927C295.07 856.185 294.365 856.453 293.689 856.726L293.224 856.918L293.513 857.012C295.718 857.761 297.959 859.07 300.191 860.801L300.585 861.111C301.886 862.149 303.094 863.26 304.179 864.371L304.615 864.825C304.684 864.898 304.752 864.97 304.818 865.041L305.19 865.448C305.368 865.646 305.492 865.789 305.558 865.868C305.834 866.197 305.802 866.698 305.486 866.986C305.171 867.274 304.691 867.241 304.414 866.911L304.174 866.635L304.081 866.532C303.803 866.222 303.48 865.875 303.115 865.502C302.071 864.434 300.909 863.365 299.661 862.369C296.579 859.908 293.5 858.305 290.633 857.954C289.874 857.861 289.707 856.789 290.398 856.45L290.773 856.273L291.515 855.936C291.605 855.896 291.698 855.856 291.793 855.814C292.879 855.341 294.063 854.869 295.305 854.427C297.332 853.707 299.315 853.142 301.185 852.79C302.131 852.612 303.032 852.492 303.885 852.434L304.426 852.406L303.86 851.948C303.1 851.341 302.317 850.739 301.523 850.157L300.725 849.583C299.614 848.795 298.539 848.091 297.519 847.49C296.458 846.866 295.474 846.365 294.584 846.004C294.193 845.846 293.999 845.387 294.151 844.979Z" fill="#CCD7EE"/>
<path d="M301.585 846.474C303.613 846.22 305.392 846.233 306.862 846.574C307.271 846.669 307.53 847.092 307.439 847.519C307.348 847.946 306.942 848.216 306.532 848.121C305.255 847.825 303.638 847.813 301.766 848.048C300.219 848.242 298.561 848.596 296.866 849.065C296.302 849.221 295.756 849.383 295.233 849.549L295.087 849.595L295.327 849.713C297.084 850.602 298.793 851.727 300.444 853.041L300.937 853.441C302.502 854.732 303.918 856.113 305.164 857.495C305.513 857.882 305.829 858.248 306.11 858.587L306.493 859.058C306.599 859.191 306.676 859.292 306.726 859.358C307.096 859.855 306.788 860.566 306.213 860.632L306.081 860.636L305.924 860.633C304.982 860.622 303.741 860.638 302.309 860.702C300.171 860.798 298.062 860.985 296.095 861.284C292.641 861.809 289.934 862.634 288.291 863.776C287.942 864.019 287.47 863.921 287.238 863.557C287.005 863.192 287.099 862.701 287.448 862.458C289.323 861.154 292.217 860.272 295.876 859.716C297.899 859.408 300.058 859.217 302.244 859.119L303.097 859.085C303.373 859.076 303.64 859.068 303.898 859.063L304.473 859.051L304.301 858.854L304.056 858.58C302.859 857.252 301.497 855.923 299.995 854.684C297.653 852.753 295.195 851.224 292.669 850.249C292.009 849.994 292.008 849.019 292.668 848.763L293.328 848.521C293.46 848.475 293.6 848.426 293.747 848.376C294.588 848.088 295.507 847.801 296.477 847.533C298.235 847.047 299.96 846.678 301.585 846.474Z" fill="#CCD7EE"/>
<path fill-rule="evenodd" clip-rule="evenodd" d="M309.835 874.72C309.835 874.72 294.43 861.331 280.309 871.15C276.778 879.356 278.821 884.236 280.524 886.768C281.229 887.817 282.563 889.279 283.717 889.714C287.156 891.008 296.172 893.607 302.561 889.223C310.69 883.645 309.835 874.72 309.835 874.72Z" fill="#CCD7EE"/>
<path d="M280.951 871.249C281.056 871.044 281.3 870.967 281.497 871.076C281.694 871.185 281.768 871.44 281.663 871.645C279.897 875.1 281.807 879.718 284.385 881.509C286.269 882.819 293.369 884.086 298.977 883.82C301.528 883.699 303.622 882.017 305.289 879.259C305.904 878.242 306.416 877.148 306.828 876.055C306.972 875.672 307.094 875.317 307.193 874.999L307.308 874.609C307.367 874.385 307.589 874.253 307.804 874.314C308.019 874.376 308.145 874.607 308.086 874.831L307.996 875.145L307.96 875.26C307.856 875.593 307.73 875.964 307.579 876.363C307.15 877.502 306.617 878.642 305.972 879.708C304.178 882.676 301.876 884.525 299.013 884.661C293.25 884.934 285.994 883.639 283.937 882.21C281.05 880.203 278.958 875.147 280.951 871.249Z" fill="#A3B5D6"/>
<path d="M314.812 798.525C315.222 798.433 315.626 798.706 315.714 799.134C315.802 799.562 315.54 799.983 315.13 800.074L314.862 800.131C314.649 800.175 314.4 800.224 314.117 800.276L313.278 800.424C312.695 800.523 312.067 800.62 311.398 800.712C306.357 801.41 301.119 801.599 296.208 800.968C295.712 800.904 295.222 800.832 294.739 800.751C294.324 800.682 294.042 800.276 294.108 799.844C294.175 799.412 294.564 799.117 294.979 799.187C295.444 799.264 295.915 799.334 296.394 799.395C301.159 800.008 306.275 799.823 311.198 799.142C312.015 799.029 312.769 798.909 313.451 798.788L313.852 798.716C314.319 798.629 314.645 798.562 314.812 798.525Z" fill="#CCD7EE"/>
<path d="M301.82 837.632C302.169 837.618 302.472 837.853 302.573 838.185L302.586 838.246L302.653 838.264L302.749 838.304L303.287 838.581L303.957 838.935C304.191 839.061 304.436 839.194 304.691 839.333C306.143 840.13 307.595 840.982 308.954 841.855C310.278 842.705 311.444 843.532 312.408 844.322C313.68 845.364 314.579 846.32 315.055 847.209C315.694 848.402 315.578 849.554 314.578 850.356C312.928 851.68 310.738 850.735 308.132 848.263C307.166 847.347 306.153 846.226 305.112 844.945C304.082 843.678 303.079 842.324 302.141 840.97L301.901 840.621L301.419 839.905L300.807 840.443C299.832 841.289 298.796 842.134 297.742 842.925C296.845 843.597 295.975 844.2 295.144 844.715L294.661 845.007C290.999 847.165 288.328 847.421 287.434 844.624C286.424 841.463 289.44 839.587 294.788 838.489C296.329 838.173 297.975 837.945 299.619 837.79L300.45 837.718L301.209 837.665C301.498 837.647 301.706 837.636 301.82 837.632ZM303.783 840.626L303.93 840.835C304.682 841.891 305.469 842.934 306.271 843.92C307.273 845.153 308.242 846.225 309.154 847.091C311.254 849.083 312.827 849.761 313.652 849.099C313.998 848.822 314.027 848.538 313.729 847.982C313.372 847.317 312.596 846.492 311.469 845.568C310.556 844.82 309.436 844.025 308.157 843.204C307.096 842.522 305.972 841.852 304.836 841.211L303.983 840.736L303.783 840.626ZM299.655 839.378L298.959 839.449C297.632 839.594 296.318 839.79 295.082 840.044L294.458 840.178C290.403 841.097 288.347 842.47 288.876 844.123C289.337 845.568 291.222 845.302 294.367 843.353C295.158 842.863 295.992 842.285 296.854 841.639C297.673 841.025 298.482 840.375 299.259 839.718L299.655 839.378Z" fill="#CCD7EE"/>
<path d="M308.193 830.494C308.576 830.53 308.867 830.857 308.883 831.247L308.881 831.354L308.31 837.9C308.272 838.336 307.902 838.657 307.484 838.617C307.101 838.581 306.811 838.254 306.794 837.864L306.796 837.756L307.368 831.211C307.402 830.811 307.716 830.508 308.09 830.491L308.193 830.494Z" fill="#CCD7EE"/>
<path d="M298.208 828.411C298.591 828.447 298.882 828.774 298.898 829.164L298.896 829.272L298.325 835.817C298.287 836.253 297.917 836.574 297.499 836.534C297.116 836.498 296.825 836.171 296.809 835.781L296.811 835.674L297.383 829.128C297.417 828.729 297.731 828.426 298.105 828.408L298.208 828.411Z" fill="#CCD7EE"/>
<path fill-rule="evenodd" clip-rule="evenodd" d="M210.438 824.826C211.818 743.043 241.475 570.649 245.734 526.249C249.995 481.848 234.841 466.81 220.314 474.136C205.785 481.464 201.437 583.908 201.437 583.908C201.437 583.908 200.438 603.958 196.646 626.79C182.937 709.331 192.559 826 192.559 826C192.559 826 195.216 833.6 203.259 832.587C211.298 831.575 210.438 824.826 210.438 824.826Z" fill="#FFC999"/>
<path fill-rule="evenodd" clip-rule="evenodd" d="M219.234 456.731L220.202 450.61C220.202 450.61 246.345 450.634 277.542 450.834C277.755 453.957 278.612 457.751 278.612 457.751C278.612 457.751 256.071 465.635 219.234 456.731Z" fill="#002AB2"/>
<path fill-rule="evenodd" clip-rule="evenodd" d="M282.623 412.97L280.427 418.821C280.427 418.821 279.824 447.726 279.824 450.016C249.869 455.073 219.536 449.62 219.536 449.62L219.683 438.921L217.244 406.101L282.623 412.97Z" fill="white"/>
<path d="M282.169 412.53C282.267 412.269 282.55 412.14 282.801 412.242C283.024 412.333 283.146 412.576 283.102 412.813L283.077 412.901L280.912 418.669L280.038 449.482C280.031 449.88 280.027 450.159 280.027 450.313C280.027 450.558 279.859 450.768 279.628 450.813C262.349 454.156 244.667 453.971 228.402 451.651C226.082 451.321 223.977 450.968 222.11 450.614L221.496 450.496C220.908 450.381 220.381 450.273 219.916 450.173L219 449.968C218.797 449.92 218.65 449.744 218.625 449.536L218.622 449.444L219.196 438.637C219.211 438.357 219.441 438.142 219.71 438.158C219.949 438.171 220.138 438.362 220.167 438.602L220.17 438.694L219.618 449.068L219.846 449.119C220.192 449.194 220.58 449.276 221.007 449.363L221.676 449.496C223.676 449.887 225.973 450.278 228.534 450.644C244.352 452.9 261.522 453.125 278.33 450.024L279.055 449.886L279.134 446.487L279.535 432.217L279.94 418.551L279.973 418.381L282.169 412.53Z" fill="black"/>
<path fill-rule="evenodd" clip-rule="evenodd" d="M312.439 305.126C312.439 305.126 327.193 302.894 331.092 319.159C345.388 324.581 341.489 340.844 341.489 340.844C341.489 340.844 348.669 353.621 334.406 360.167C333.264 373.257 319.001 370.876 319.001 370.876C319.001 370.876 315.577 380.992 304.737 376.828C293.041 386.315 279.106 374.729 279.106 374.729C279.106 374.729 266.11 380.151 260.913 374.729C249.215 378.795 236.218 363.886 236.218 363.886C236.218 363.886 228.917 365.82 223.718 353.621C210.139 355.819 195.304 337.77 207.742 320.894C199.583 307.424 208.883 299.473 208.883 299.473C208.883 299.473 206.316 268.531 226.856 264.367C237.41 247.705 260.233 261.094 260.233 261.094C260.233 261.094 275.353 257.821 280.774 271.508C297.668 274.218 296.876 283.902 298.176 292.036C313.294 292.927 312.439 305.126 312.439 305.126Z" fill="black"/>
<path fill-rule="evenodd" clip-rule="evenodd" d="M265.559 290.018C253.712 292.186 250.112 282.838 250.112 282.838C250.112 282.838 245.225 269.672 243.973 277.755C243.307 282.051 236.939 276.35 234.011 280.93C232.041 284.012 236.967 287.984 230.565 296.2C226.856 300.96 241.485 304.759 232.46 313.533C232.46 313.533 238.878 324.243 227.854 327.737L225.416 340.207L250.821 340.166L250.004 325.806C267.121 325.806 267.956 301.27 265.559 290.018Z" fill="#FFC999"/>
<path d="M243.72 303.078C244.016 302.769 244.497 302.769 244.794 303.078L244.949 303.227C245.02 303.291 245.11 303.369 245.219 303.459C245.59 303.765 246.027 304.072 246.522 304.36C248.203 305.335 250.122 305.839 252.233 305.626C252.651 305.584 253.022 305.902 253.063 306.338C253.103 306.774 252.798 307.161 252.38 307.203C249.937 307.45 247.718 306.867 245.784 305.745C244.803 305.176 244.105 304.601 243.72 304.199C243.423 303.889 243.423 303.388 243.72 303.078Z" fill="#F5222D"/>
<path d="M253.067 290.693C253.367 290.715 253.6 290.962 253.627 291.265L253.627 291.375C253.613 291.794 253.692 292.496 253.957 293.45C254.383 294.988 255.18 296.714 256.44 298.598C256.639 298.894 256.559 299.302 256.266 299.494L255.479 300.004C254.461 300.656 253.563 301.205 252.783 301.657L252.496 301.822C252.278 301.946 252.079 302.057 251.899 302.155L251.285 302.479C251.27 302.486 251.257 302.493 251.245 302.498C250.942 302.644 250.582 302.506 250.442 302.189C250.301 301.873 250.434 301.497 250.738 301.351L251.019 301.207L251.518 300.937C251.642 300.868 251.774 300.794 251.915 300.714C252.638 300.301 253.476 299.796 254.43 299.191L255.088 298.769L254.938 298.53C253.971 296.965 253.304 295.494 252.891 294.138L252.793 293.801C252.52 292.814 252.417 292.034 252.415 291.487L252.419 291.278C252.443 290.93 252.733 290.668 253.067 290.693Z" fill="#DD936F"/>
<path fill-rule="evenodd" clip-rule="evenodd" d="M255.504 439.007C255.504 439.007 287.976 447.989 302.789 437.222C318.89 425.52 299.173 380.991 294.016 369.389C289.59 359.427 279.94 352.972 271.157 351.446C262.515 349.944 255.911 349.41 255.911 349.41L254.013 341.695C253.736 340.571 252.766 339.784 251.653 339.784H225.764C224.551 339.784 223.525 340.715 223.352 341.966L222.352 349.273C222.352 349.273 200.56 348.421 190.245 358.381C180.366 367.922 183.22 389.334 191.508 409.154C199.793 428.975 206.773 444.703 220.628 446.148C246.243 448.819 286.282 425.562 286.282 425.562C286.282 425.562 293.112 421.747 299.456 422.765C297.992 413.605 293.112 406.991 278.963 410.807L228.466 421.747" fill="white"/>
<path fill-rule="evenodd" clip-rule="evenodd" d="M286.525 394.907C286.525 394.907 288.966 403.301 283.904 410.107L284.453 418.884L248.591 439.111C248.591 439.111 287.621 448.495 303.217 439.008C314.914 431.892 311.552 411.653 302.575 391.256C302.575 391.256 295.514 389.026 286.525 394.907Z" fill="#FFC999"/>
<path fill-rule="evenodd" clip-rule="evenodd" d="M216.268 397.196L226.27 419.839L266.273 408.513C278.228 405.204 290.917 409.917 294.088 419.839C288.234 420.602 277.133 423.273 277.133 423.273C277.133 423.273 238.712 448.269 219.317 447.317C205.408 446.632 199.996 429.737 191.708 409.917C191.708 409.917 196.752 398.723 216.268 397.196Z" fill="#FFC999"/>
<path d="M281.403 373.027C281.672 373.027 281.891 373.255 281.891 373.536L281.883 374.244L281.868 374.946C281.858 375.312 281.845 375.698 281.829 376.101C281.766 377.702 281.659 379.303 281.501 380.832L281.426 381.496L281.653 381.741C283.189 383.435 284.413 385.236 285.345 387.131L285.572 387.606C288.323 393.552 288.143 399.885 286.195 405.863C285.882 406.822 285.547 407.688 285.212 408.447L285.041 408.823L284.756 409.403C284.624 409.648 284.327 409.735 284.092 409.598C283.857 409.46 283.774 409.15 283.905 408.905L284.045 408.63C284.121 408.472 284.217 408.268 284.326 408.021C284.648 407.293 284.97 406.46 285.271 405.536C287.145 399.788 287.317 393.718 284.694 388.048C283.71 385.921 282.345 383.911 280.569 382.034C280.464 381.923 280.414 381.768 280.432 381.614C280.643 379.848 280.779 377.954 280.855 376.059L280.893 374.919L280.915 373.696L280.915 373.536C280.915 373.255 281.134 373.027 281.403 373.027Z" fill="black"/>
<path d="M245.5 349.146C245.77 349.146 245.988 349.374 245.988 349.654C245.988 349.904 245.815 350.112 245.588 350.155L245.5 350.163H222.188C221.919 350.163 221.701 349.935 221.701 349.654C221.701 349.405 221.873 349.197 222.101 349.154L222.188 349.146H245.5Z" fill="black"/>
<path d="M256.456 349.219C256.535 348.901 256.845 348.71 257.15 348.791C257.424 348.865 257.6 349.135 257.576 349.419L257.56 349.515L249.875 380.68C249.771 381.102 249.291 381.258 248.977 381.004L248.907 380.938L220.975 349.772C220.761 349.533 220.773 349.157 221.003 348.933C221.207 348.734 221.514 348.721 221.731 348.89L221.808 348.961L249.03 379.336L256.456 349.219Z" fill="black"/>
<path fill-rule="evenodd" clip-rule="evenodd" d="M257.412 384.003C259.997 388.55 258.831 394.252 254.81 396.739C250.787 399.227 245.431 397.556 242.846 393.011C240.26 388.464 241.425 382.761 245.447 380.274C249.47 377.787 254.825 379.456 257.412 384.003Z" fill="#464646"/>
<path fill-rule="evenodd" clip-rule="evenodd" d="M258.34 383.981C260.926 388.528 259.76 394.23 255.738 396.716C251.716 399.203 246.36 397.534 243.775 392.987C241.19 388.44 242.354 382.739 246.376 380.252C250.398 377.764 255.755 379.434 258.34 383.981Z" fill="black"/>
<path fill-rule="evenodd" clip-rule="evenodd" d="M256.699 384.773C258.705 388.303 257.8 392.73 254.677 394.661C251.556 396.592 247.397 395.296 245.391 391.766C243.383 388.235 244.286 383.809 247.409 381.878C250.532 379.945 254.691 381.243 256.699 384.773Z" fill="#C961DE"/>
<path d="M238.56 322.826C238.719 322.52 239.087 322.406 239.381 322.573C242.694 324.453 246.127 325.397 249.572 325.446C249.907 325.451 250.174 325.738 250.17 326.086C250.165 326.435 249.89 326.714 249.556 326.709C245.913 326.658 242.287 325.66 238.802 323.683C238.508 323.516 238.4 323.133 238.56 322.826Z" fill="#DD936F"/>
<path fill-rule="evenodd" clip-rule="evenodd" d="M243.878 414.76C243.878 414.76 229.271 401.997 220.294 402.666C211.754 403.302 206.632 410.553 208.095 414.623C208.095 414.623 206.146 418.186 209.315 419.33C208.888 421.938 212.486 421.747 212.486 421.747C212.486 421.747 211.878 423.401 214.439 423.782C217 424.164 219.828 418.692 226.477 419.818L243.878 414.76Z" fill="#FFC999"/>
<path d="M219.929 401.702C215.928 402 211.636 404.971 208.552 408.941C207.258 410.607 206.366 412.248 206.115 413.45L206.085 413.611C205.921 414.618 206.252 415.338 206.961 415.574L207.006 415.586L206.95 415.72C206.75 416.231 206.654 416.75 206.704 417.266L206.728 417.448C206.86 418.225 207.34 418.865 208.168 419.314L208.353 419.407L208.353 419.45C208.361 420.693 209.164 421.481 210.403 421.835L210.665 421.902C210.926 421.963 211.186 422.002 211.435 422.024L211.504 422.028L211.509 422.079C211.538 422.314 211.611 422.552 211.74 422.785C212.113 423.457 212.87 423.9 214.032 424.073C214.679 424.169 215.32 423.999 216.079 423.59L216.31 423.46C216.782 423.185 218.579 421.947 218.601 421.933C221.109 420.281 223.233 419.629 226.059 420.107C226.142 420.121 226.227 420.117 226.308 420.095L244.379 415.225C244.86 415.096 244.995 414.45 244.61 414.123L243.958 413.586L243.296 413.055C242.948 412.779 242.574 412.487 242.177 412.182C240.287 410.73 238.254 409.279 236.157 407.923C233.736 406.358 231.384 405.024 229.155 403.99C225.744 402.407 222.748 401.585 220.264 401.682L219.929 401.702ZM228.663 405.144C230.836 406.152 233.141 407.46 235.519 408.997C237.587 410.333 239.593 411.766 241.459 413.199L242.33 413.876L242.889 414.321L226.124 418.839L226.253 418.86C223.214 418.345 220.876 419.007 218.268 420.661L217.954 420.865C217.898 420.902 216.144 422.109 215.719 422.357C215.067 422.737 214.599 422.881 214.204 422.822C213.38 422.7 212.954 422.45 212.788 422.153C212.72 422.029 212.699 421.894 212.71 421.764L212.731 421.639C212.877 421.243 212.615 420.824 212.22 420.784L212.108 420.783C211.708 420.794 211.199 420.753 210.723 420.617C209.843 420.365 209.458 419.923 209.593 419.103C209.643 418.798 209.474 418.5 209.194 418.399C208.322 418.084 207.961 417.662 207.909 417.137C207.873 416.764 207.99 416.323 208.218 415.873C208.342 415.628 208.465 415.441 208.538 415.346C208.902 414.875 208.486 414.191 207.923 414.336L207.705 414.386C207.219 414.481 207.169 414.336 207.298 413.719C207.502 412.745 208.307 411.263 209.493 409.736C212.386 406.013 216.405 403.231 220.015 402.962C222.326 402.789 225.262 403.566 228.663 405.144Z" fill="#DD936F"/>
<path d="M219.853 406.11C220.185 406.066 220.488 406.312 220.529 406.658C220.571 407.004 220.335 407.32 220.003 407.363C217.699 407.663 215.203 409.034 212.691 411.139C211.674 411.992 210.724 412.907 209.87 413.822L209.447 414.283L208.935 414.87C208.875 414.942 208.831 414.995 208.803 415.029C208.588 415.297 208.206 415.332 207.95 415.107C207.694 414.883 207.66 414.485 207.875 414.217L208.175 413.86C208.415 413.582 208.691 413.273 209.002 412.94C209.889 411.991 210.874 411.042 211.933 410.154C214.604 407.916 217.283 406.444 219.853 406.11Z" fill="#DD936F"/>
<path d="M223.882 409.52C224.216 409.508 224.496 409.782 224.507 410.13C224.518 410.479 224.256 410.771 223.922 410.783C223.72 410.79 223.516 410.803 223.31 410.824C220.451 411.106 217.343 412.634 214.206 415.011C212.969 415.947 211.814 416.952 210.774 417.956C210.501 418.22 210.251 418.469 210.026 418.7L209.514 419.239C209.498 419.257 209.485 419.272 209.474 419.284C209.245 419.539 208.862 419.553 208.618 419.316C208.373 419.078 208.359 418.678 208.587 418.423L208.95 418.034L209.418 417.554C209.585 417.386 209.763 417.211 209.951 417.029C211.025 415.993 212.216 414.957 213.494 413.988C216.791 411.491 220.08 409.874 223.195 409.566C223.426 409.543 223.655 409.528 223.882 409.52Z" fill="#DD936F"/>
<path d="M223.863 413.536C224.197 413.514 224.485 413.779 224.506 414.127C224.527 414.475 224.274 414.775 223.94 414.797C222.906 414.866 221.621 415.329 220.154 416.13C219.119 416.695 218.021 417.413 216.886 418.248C215.838 419.02 214.817 419.848 213.866 420.675L213.392 421.093L212.65 421.773C212.403 422.009 212.02 421.992 211.794 421.735C211.568 421.478 211.584 421.078 211.831 420.842L212.17 420.526L212.603 420.134C212.757 419.997 212.919 419.854 213.09 419.705C214.065 418.857 215.111 418.009 216.188 417.216C217.363 416.351 218.506 415.605 219.592 415.011C221.197 414.135 222.63 413.618 223.863 413.536Z" fill="#DD936F"/>
<path d="M210.471 380.664C210.697 380.581 210.942 380.681 211.057 380.89L211.094 380.973L216.484 396.771C216.593 397.092 216.374 397.433 216.048 397.449L215.767 397.468C215.533 397.485 215.261 397.51 214.954 397.541C214.075 397.632 213.095 397.766 212.038 397.951C209.022 398.48 206.005 399.311 203.195 400.509C198.056 402.7 194.204 405.86 192.144 410.144C192.024 410.395 191.731 410.497 191.49 410.371C191.249 410.245 191.152 409.939 191.272 409.688C193.452 405.153 197.487 401.843 202.826 399.568C205.71 398.339 208.794 397.489 211.877 396.948C212.776 396.791 213.621 396.669 214.399 396.579L215.088 396.506L215.35 396.481L210.175 381.314C210.095 381.079 210.191 380.823 210.391 380.703L210.471 380.664Z" fill="black"/>
<path d="M291.044 392.081C294.801 390.389 298.791 389.698 302.73 390.594C302.994 390.654 303.16 390.925 303.103 391.199C303.046 391.473 302.786 391.647 302.523 391.588C298.809 390.744 295.016 391.4 291.431 393.015C290.705 393.342 290.036 393.689 289.433 394.038L289.079 394.248C288.666 394.498 288.381 394.69 288.236 394.797C288.015 394.958 287.711 394.903 287.556 394.673C287.401 394.444 287.454 394.126 287.674 393.965L287.917 393.796C288.109 393.666 288.334 393.523 288.588 393.368C289.312 392.929 290.136 392.49 291.044 392.081Z" fill="black"/>
<path d="M283.681 409.01C283.813 408.689 284.169 408.541 284.476 408.678C286.626 409.639 288.608 411.181 290.412 413.141C291.514 414.339 292.483 415.619 293.313 416.901C293.531 417.237 293.728 417.556 293.903 417.853L294.207 418.385C294.265 418.491 294.308 418.572 294.337 418.628C294.514 418.974 294.347 419.394 294.006 419.52L293.917 419.545L282.874 421.76L246.425 440.839C246.156 440.98 245.834 440.892 245.663 440.645L245.612 440.557C245.477 440.277 245.561 439.941 245.797 439.763L245.882 439.71L282.406 420.592L282.563 420.536L292.846 418.473L292.697 418.225C292.637 418.127 292.575 418.026 292.51 417.923L292.309 417.608C291.516 416.383 290.589 415.158 289.538 414.016C287.838 412.169 285.984 410.727 283.999 409.839C283.691 409.702 283.549 409.331 283.681 409.01Z" fill="#DD936F"/>
<path d="M219.661 456.424C219.761 456.113 220.084 455.945 220.382 456.049L220.994 456.25L221.533 456.419C221.912 456.535 222.33 456.659 222.785 456.79C224.74 457.349 226.977 457.908 229.461 458.431C245.219 461.745 261.993 461.994 277.811 457.181C278.113 457.09 278.429 457.27 278.518 457.585C278.606 457.9 278.432 458.23 278.13 458.322C262.11 463.196 245.159 462.944 229.236 459.595C226.726 459.067 224.463 458.502 222.484 457.935L221.819 457.742C221.5 457.647 221.203 457.557 220.929 457.471L220.167 457.225C220.107 457.205 220.058 457.189 220.02 457.176C219.722 457.071 219.561 456.735 219.661 456.424Z" fill="#253368"/>
<path d="M245.111 290.61C245.515 290.61 245.842 290.952 245.842 291.373C245.842 294.303 243.727 296.703 241.085 296.703C238.444 296.703 236.33 294.303 236.33 291.373C236.33 290.952 236.658 290.61 237.061 290.61C237.465 290.61 237.793 290.952 237.793 291.373C237.793 293.488 239.281 295.178 241.085 295.178C242.89 295.178 244.38 293.488 244.38 291.373C244.38 290.952 244.707 290.61 245.111 290.61Z" fill="#253368"/>
<path d="M263.556 291.134C263.939 291.134 264.249 291.458 264.249 291.858C264.249 294.752 262.349 297.149 259.934 297.149C257.518 297.149 255.618 294.752 255.618 291.858C255.618 291.458 255.929 291.134 256.312 291.134C256.695 291.134 257.005 291.458 257.005 291.858C257.005 294.008 258.349 295.702 259.934 295.702C261.519 295.702 262.862 294.008 262.862 291.858C262.862 291.458 263.173 291.134 263.556 291.134Z" fill="#253368"/>
<path d="M236.85 282.399C239.641 281.17 242.596 281.293 245.39 282.229C246.193 282.498 246.792 282.77 247.136 282.959C247.493 283.155 247.63 283.616 247.441 283.989C247.253 284.361 246.81 284.504 246.453 284.307L246.27 284.214C246.213 284.187 246.146 284.155 246.068 284.121C245.739 283.971 245.362 283.821 244.943 283.681C242.453 282.847 239.84 282.738 237.419 283.804C236.977 283.998 236.547 284.231 236.128 284.504C235.786 284.727 235.334 284.618 235.12 284.261C234.906 283.904 235.01 283.434 235.353 283.211C235.838 282.895 236.337 282.624 236.85 282.399Z" fill="#253368"/>
<path fill-rule="evenodd" clip-rule="evenodd" d="M276.259 456.412C289.095 457.304 320.478 541.463 332.317 571.549C330.851 577.656 321.619 588.508 321.619 588.508C321.619 588.508 322.672 593.342 323.32 596.247C312.481 605.767 291.371 611.123 291.371 611.123V615.287C257.707 631.948 212.213 616.92 212.213 616.92C212.213 616.92 211.356 616.028 211.927 612.756C196.558 612.756 163.431 592.822 163.431 592.822L167.995 582.707L154.302 568.425C154.302 568.425 196.147 493.795 203.275 477.387C211.215 459.113 219.988 455.72 219.988 455.72C219.988 455.72 253.48 454.828 276.259 456.412Z" fill="#002AB2"/>
<path d="M203.996 503.312C204.131 503.016 204.471 502.89 204.755 503.032C205.01 503.159 205.134 503.458 205.057 503.733L205.024 503.823L164.716 592.039L165.223 592.419L165.653 592.732C166.738 593.517 168.017 594.392 169.481 595.335C173.669 598.032 178.5 600.73 183.908 603.249C192.589 607.292 201.91 610.475 211.75 612.471C212.059 612.534 212.26 612.846 212.2 613.168C212.14 613.49 211.841 613.7 211.532 613.637C201.603 611.623 192.2 608.412 183.443 604.334C177.988 601.793 173.112 599.07 168.883 596.346C167.566 595.498 166.395 594.703 165.378 593.978L165.004 593.709C164.772 593.541 164.559 593.385 164.364 593.24L163.822 592.83C163.746 592.772 163.69 592.728 163.654 592.699C163.467 592.55 163.39 592.299 163.451 592.068L163.486 591.971L203.996 503.312Z" fill="black"/>
<path d="M285.892 495.577C286.156 495.47 286.45 495.581 286.589 495.827L286.63 495.914L324.423 596.625C324.52 596.884 324.432 597.178 324.21 597.334L323.945 597.516C323.73 597.662 323.476 597.831 323.184 598.021L322.439 598.501C321.792 598.913 321.077 599.353 320.299 599.818C317.189 601.673 313.706 603.528 309.932 605.259C303.944 608.006 297.797 610.177 291.633 611.555C291.325 611.624 291.022 611.419 290.956 611.099C290.89 610.778 291.086 610.462 291.394 610.393C297.477 609.033 303.552 606.888 309.473 604.172C313.209 602.458 316.656 600.622 319.733 598.786C320.809 598.144 321.761 597.548 322.58 597.014L323.193 596.607L285.569 496.347C285.466 496.072 285.573 495.765 285.809 495.62L285.892 495.577Z" fill="black"/>
<path d="M264.586 472.344C264.894 472.276 265.196 472.482 265.261 472.803L267.317 483.127C268.049 486.818 268.827 490.767 269.646 494.941L270.394 498.757C273.947 516.922 277.501 535.453 280.852 553.429L281.686 557.911C282.301 561.23 282.905 564.503 283.496 567.727L284.775 574.742C287.536 589.953 289.944 603.737 291.931 615.782C291.978 616.067 291.821 616.347 291.559 616.443C289.652 617.145 287.717 617.789 285.756 618.377C265.323 624.499 243.535 624.302 223.019 620.299C219.873 619.685 217.037 619.028 214.557 618.37L213.723 618.145C213.457 618.071 213.204 618 212.962 617.932L211.968 617.641C211.739 617.572 211.573 617.52 211.474 617.488C211.226 617.407 211.065 617.165 211.072 616.902L211.084 616.803L230.778 515.067C230.841 514.746 231.141 514.537 231.45 514.602C231.727 514.661 231.916 514.92 231.906 515.206L231.895 515.302L212.304 616.505L213.263 616.786C213.74 616.921 214.265 617.066 214.838 617.218C217.295 617.87 220.107 618.522 223.229 619.131C243.585 623.103 265.204 623.298 285.442 617.235C286.993 616.77 288.528 616.269 290.046 615.732L290.726 615.486L289.992 611.076C288.104 599.829 285.883 587.207 283.379 573.437L282.818 570.359C282.087 566.361 281.337 562.284 280.567 558.137C277.528 541.753 274.304 524.838 271.053 508.102L267.804 491.485L264.146 473.047C264.081 472.726 264.279 472.411 264.586 472.344Z" fill="black"/>
<path d="M248.322 474.267C248.604 474.283 248.828 474.511 248.858 474.795L248.86 474.892L243.878 572.919C243.862 573.247 243.593 573.498 243.279 573.482C242.997 573.465 242.773 573.237 242.743 572.953L242.741 572.856L247.723 474.829C247.739 474.502 248.008 474.25 248.322 474.267Z" fill="black"/>
<path d="M231.641 459.35C231.739 459.039 232.061 458.869 232.36 458.971C232.629 459.063 232.788 459.344 232.745 459.627L232.723 459.721L213.896 519.521C213.798 519.833 213.476 520.003 213.177 519.9C212.908 519.808 212.75 519.527 212.792 519.245L212.814 519.151L231.641 459.35Z" fill="black"/>
<path fill-rule="evenodd" clip-rule="evenodd" d="M193.091 828.308C192.909 829.145 190.177 799.203 190.308 790.374C201.649 791.937 212.133 790.821 212.133 790.821C212.133 790.821 210.635 824.96 211.063 828.308C202.932 833.439 193.091 828.308 193.091 828.308Z" fill="#597EF7"/>
<path fill-rule="evenodd" clip-rule="evenodd" d="M195.419 868.82C196.827 880.655 202.932 886.917 209.231 887.61C217.031 888.469 225.524 886.176 226.896 878.884C228.462 870.562 224.355 866.305 219.767 854.403C215.178 842.502 212.988 832.324 211.278 823.846C211.278 823.846 205.429 820.275 206.998 830.538C208.269 838.849 211.349 862.225 216.768 863.859C211.49 863.414 200.649 867.728 200.649 867.728C200.649 867.728 204.501 861.48 204.217 859.397C203.932 857.316 200.744 835.977 200.58 829.647C200.416 823.386 195.209 824.142 192.699 824.874C191.917 825.101 191.42 825.888 191.514 826.73C191.752 828.814 194.753 863.217 195.419 868.82Z" fill="#4E5C93"/>
<path fill-rule="evenodd" clip-rule="evenodd" d="M198.225 837.456C198.225 837.456 191.719 823.251 198.225 821.837C203.361 820.722 208.281 820.497 208.923 821.837C209.162 822.336 209.138 826.969 210.848 836.563C212.847 847.765 217.956 860.901 219.836 863.563C222.831 867.803 219.621 868.025 212.347 870.035C205.073 872.042 202.506 872.042 200.579 868.025C198.654 864.009 198.654 846.159 198.225 837.456Z" fill="#4E5C93"/>
<path d="M210.788 840.957C211.179 840.799 211.619 841.001 211.771 841.409C211.923 841.816 211.729 842.275 211.338 842.434C210.448 842.795 209.464 843.296 208.404 843.92C207.383 844.52 206.308 845.225 205.197 846.012C204.13 846.769 203.075 847.569 202.062 848.378L201.495 848.835L201.531 848.837C202.388 848.87 203.297 848.971 204.253 849.133L204.736 849.22C206.606 849.571 208.589 850.137 210.617 850.857C211.859 851.298 213.042 851.771 214.128 852.244L214.669 852.483L215.522 852.88C216.214 853.219 216.046 854.291 215.288 854.384C212.421 854.735 209.343 856.338 206.261 858.799C205.013 859.795 203.851 860.863 202.808 861.932C202.589 862.156 202.385 862.37 202.196 862.573L201.841 862.961C201.676 863.145 201.563 863.275 201.508 863.341C201.232 863.67 200.752 863.704 200.436 863.416C200.12 863.128 200.088 862.627 200.364 862.298L200.632 861.99L200.732 861.878C201.024 861.552 201.363 861.19 201.743 860.801C202.829 859.69 204.037 858.579 205.337 857.54C207.699 855.655 210.074 854.235 212.408 853.442L212.697 853.347L212.232 853.156C211.781 852.974 211.318 852.794 210.844 852.618L210.127 852.357C208.166 851.661 206.254 851.115 204.466 850.779C202.503 850.41 200.768 850.309 199.327 850.514C198.575 850.62 198.154 849.638 198.732 849.125L199.175 848.741L199.861 848.161C200.024 848.025 200.195 847.884 200.372 847.739C201.636 846.704 202.978 845.669 204.343 844.702C205.487 843.891 206.597 843.164 207.657 842.54C208.776 841.881 209.823 841.348 210.788 840.957Z" fill="#CCD7EE"/>
<path d="M199.061 843.004C200.531 842.663 202.31 842.649 204.338 842.904C205.962 843.108 207.687 843.477 209.445 843.963C210.221 844.177 210.965 844.404 211.662 844.633L212.39 844.88L213.254 845.193C213.914 845.449 213.914 846.423 213.253 846.678C210.727 847.654 208.269 849.182 205.927 851.114C204.613 852.198 203.405 853.351 202.321 854.512L201.741 855.148L201.447 855.481L202.417 855.502C202.684 855.51 202.96 855.519 203.245 855.53L203.677 855.548C205.864 855.646 208.023 855.838 210.046 856.145C213.705 856.701 216.598 857.583 218.474 858.887C218.823 859.13 218.917 859.622 218.685 859.986C218.452 860.35 217.98 860.449 217.631 860.206C215.988 859.064 213.281 858.238 209.827 857.714C207.86 857.414 205.75 857.227 203.612 857.132C202.61 857.087 201.701 857.066 200.922 857.061L199.811 857.066C199.172 857.081 198.802 856.314 199.195 855.788L199.512 855.382L199.607 855.265C199.936 854.859 200.321 854.409 200.757 853.924C202.003 852.543 203.42 851.161 204.985 849.871C206.788 848.384 208.662 847.12 210.595 846.143L210.834 846.025L210.69 845.978C210.341 845.868 209.982 845.759 209.614 845.652L209.056 845.494C207.361 845.026 205.703 844.672 204.156 844.477C202.284 844.242 200.667 844.255 199.39 844.551C198.981 844.646 198.575 844.376 198.484 843.949C198.393 843.522 198.651 843.099 199.061 843.004Z" fill="#CCD7EE"/>
<path fill-rule="evenodd" clip-rule="evenodd" d="M196.085 871.15C196.085 871.15 211.49 857.761 225.612 867.579C229.142 875.786 227.101 880.665 225.399 883.198C224.694 884.247 223.358 885.709 222.205 886.143C218.766 887.438 209.75 890.037 203.361 885.653C195.23 880.074 196.085 871.15 196.085 871.15Z" fill="#CCD7EE"/>
<path d="M224.425 867.506C224.622 867.396 224.866 867.474 224.971 867.679C226.964 871.576 224.873 876.631 221.985 878.641C219.929 880.07 212.673 881.364 206.909 881.09C204.046 880.955 201.744 879.106 199.95 876.138C199.305 875.072 198.772 873.932 198.343 872.792C198.23 872.493 198.13 872.21 198.044 871.946L197.896 871.474C197.869 871.381 197.849 871.309 197.836 871.261C197.777 871.037 197.904 870.805 198.118 870.744C198.333 870.682 198.555 870.814 198.614 871.038L198.729 871.429L198.895 871.932C198.955 872.109 199.022 872.293 199.094 872.485C199.506 873.578 200.017 874.671 200.632 875.689C202.299 878.447 204.393 880.128 206.945 880.25C212.554 880.516 219.654 879.249 221.537 877.941C224.116 876.146 226.025 871.53 224.259 868.075C224.154 867.87 224.229 867.615 224.425 867.506Z" fill="#A3B5D6"/>
<path d="M190.208 795.564C190.296 795.136 190.7 794.863 191.11 794.955L191.747 795.084L192.071 795.145C192.853 795.291 193.743 795.436 194.724 795.572C199.647 796.253 204.763 796.438 209.528 795.825C210.007 795.763 210.478 795.694 210.943 795.616C211.358 795.547 211.747 795.841 211.814 796.273C211.88 796.705 211.598 797.112 211.184 797.181C210.701 797.262 210.211 797.334 209.714 797.398C204.803 798.03 199.564 797.841 194.524 797.142C193.688 797.027 192.915 796.904 192.216 796.78L191.406 796.63L190.792 796.504C190.382 796.413 190.121 795.991 190.208 795.564Z" fill="#CCD7EE"/>
<path d="M203.999 834.064L204.102 834.061L204.714 834.094C205.194 834.124 205.728 834.165 206.303 834.219C207.947 834.374 209.593 834.602 211.134 834.919C216.482 836.017 219.498 837.894 218.488 841.055C217.555 843.973 214.687 843.567 210.779 841.145C209.947 840.63 209.077 840.027 208.18 839.355C207.126 838.564 206.09 837.718 205.115 836.872L204.865 836.654L204.504 836.334L204.021 837.05L203.781 837.399C202.843 838.753 201.84 840.108 200.81 841.374C199.769 842.655 198.756 843.776 197.79 844.692C195.185 847.165 192.994 848.11 191.344 846.786C190.345 845.985 190.228 844.833 190.866 843.64C191.342 842.751 192.241 841.795 193.512 840.753C194.477 839.963 195.643 839.136 196.969 838.284C198.327 837.412 199.779 836.561 201.232 835.764L201.965 835.366L203.173 834.734C203.205 834.718 203.237 834.705 203.269 834.694L203.334 834.676L203.35 834.614C203.44 834.315 203.694 834.095 203.999 834.064ZM202.137 837.058L201.939 837.166C200.515 837.947 199.091 838.782 197.765 839.634C196.485 840.456 195.365 841.251 194.451 841.999C193.324 842.922 192.549 843.747 192.193 844.413C191.895 844.969 191.924 845.252 192.27 845.53C193.095 846.191 194.668 845.513 196.768 843.52C197.68 842.655 198.649 841.582 199.651 840.349C200.453 839.364 201.24 838.32 201.992 837.264L202.137 837.058ZM206.265 835.807L206.663 836.148C207.44 836.805 208.249 837.455 209.068 838.068C209.93 838.715 210.764 839.293 211.555 839.783C214.699 841.732 216.585 841.999 217.047 840.553C217.601 838.818 215.307 837.391 210.84 836.473C209.604 836.22 208.29 836.024 206.963 835.878L206.265 835.807Z" fill="#CCD7EE"/>
<path d="M197.729 826.923C198.112 826.887 198.455 827.154 198.538 827.534L198.555 827.641L199.124 834.186C199.162 834.622 198.854 835.007 198.436 835.047C198.053 835.083 197.711 834.816 197.627 834.436L197.611 834.329L197.041 827.784C197.003 827.348 197.311 826.963 197.729 826.923Z" fill="#CCD7EE"/>
<path d="M207.714 824.841C208.097 824.805 208.44 825.071 208.523 825.452L208.539 825.558L209.109 832.104C209.147 832.539 208.839 832.925 208.421 832.964C208.038 833.001 207.696 832.734 207.612 832.353L207.596 832.247L207.026 825.701C206.988 825.266 207.296 824.88 207.714 824.841Z" fill="#CCD7EE"/>
<path d="M217.224 154.088V179H213.948V160.424L205.668 179H203.364L195.048 160.388V179H191.772V154.088H195.3L204.516 174.68L213.732 154.088H217.224ZM239.772 159.272L227.892 188.288H224.508L228.396 178.784L220.44 159.272H224.076L230.268 175.256L236.388 159.272H239.772ZM260.619 179.252C258.963 179.252 257.475 178.964 256.155 178.388C254.859 177.788 253.839 176.972 253.095 175.94C252.351 174.884 251.967 173.672 251.943 172.304H255.435C255.555 173.48 256.035 174.476 256.875 175.292C257.739 176.084 258.987 176.48 260.619 176.48C262.179 176.48 263.403 176.096 264.291 175.328C265.203 174.536 265.659 173.528 265.659 172.304C265.659 171.344 265.395 170.564 264.867 169.964C264.339 169.364 263.679 168.908 262.887 168.596C262.095 168.284 261.027 167.948 259.683 167.588C258.027 167.156 256.695 166.724 255.687 166.292C254.703 165.86 253.851 165.188 253.131 164.276C252.435 163.34 252.087 162.092 252.087 160.532C252.087 159.164 252.435 157.952 253.131 156.896C253.827 155.84 254.799 155.024 256.047 154.448C257.319 153.872 258.771 153.584 260.403 153.584C262.755 153.584 264.675 154.172 266.163 155.348C267.675 156.524 268.527 158.084 268.719 160.028H265.119C264.999 159.068 264.495 158.228 263.607 157.508C262.719 156.764 261.543 156.392 260.079 156.392C258.711 156.392 257.595 156.752 256.731 157.472C255.867 158.168 255.435 159.152 255.435 160.424C255.435 161.336 255.687 162.08 256.191 162.656C256.719 163.232 257.355 163.676 258.099 163.988C258.867 164.276 259.935 164.612 261.303 164.996C262.959 165.452 264.291 165.908 265.299 166.364C266.307 166.796 267.171 167.48 267.891 168.416C268.611 169.328 268.971 170.576 268.971 172.16C268.971 173.384 268.647 174.536 267.999 175.616C267.351 176.696 266.391 177.572 265.119 178.244C263.847 178.916 262.347 179.252 260.619 179.252ZM284.808 179L277.068 170.288V179H273.792V152.36H277.068V168.02L284.664 159.272H289.236L279.948 169.1L289.272 179H284.808ZM294.011 156.068C293.387 156.068 292.859 155.852 292.427 155.42C291.995 154.988 291.779 154.46 291.779 153.836C291.779 153.212 291.995 152.684 292.427 152.252C292.859 151.82 293.387 151.604 294.011 151.604C294.611 151.604 295.115 151.82 295.523 152.252C295.955 152.684 296.171 153.212 296.171 153.836C296.171 154.46 295.955 154.988 295.523 155.42C295.115 155.852 294.611 156.068 294.011 156.068ZM295.595 159.272V179H292.319V159.272H295.595ZM304.454 152.36V179H301.178V152.36H304.454ZM313.314 152.36V179H310.038V152.36H313.314ZM325.881 179.324C324.369 179.324 323.013 179.072 321.813 178.568C320.613 178.04 319.665 177.32 318.969 176.408C318.273 175.472 317.889 174.404 317.817 173.204H321.201C321.297 174.188 321.753 174.992 322.569 175.616C323.409 176.24 324.501 176.552 325.845 176.552C327.093 176.552 328.077 176.276 328.797 175.724C329.517 175.172 329.877 174.476 329.877 173.636C329.877 172.772 329.493 172.136 328.725 171.728C327.957 171.296 326.769 170.876 325.161 170.468C323.697 170.084 322.497 169.7 321.561 169.316C320.649 168.908 319.857 168.32 319.185 167.552C318.537 166.76 318.213 165.728 318.213 164.456C318.213 163.448 318.513 162.524 319.113 161.684C319.713 160.844 320.565 160.184 321.669 159.704C322.773 159.2 324.033 158.948 325.449 158.948C327.633 158.948 329.397 159.5 330.741 160.604C332.085 161.708 332.805 163.22 332.901 165.14H329.625C329.553 164.108 329.133 163.28 328.365 162.656C327.621 162.032 326.613 161.72 325.341 161.72C324.165 161.72 323.229 161.972 322.533 162.476C321.837 162.98 321.489 163.64 321.489 164.456C321.489 165.104 321.693 165.644 322.101 166.076C322.533 166.484 323.061 166.82 323.685 167.084C324.333 167.324 325.221 167.6 326.349 167.912C327.765 168.296 328.917 168.68 329.805 169.064C330.693 169.424 331.449 169.976 332.073 170.72C332.721 171.464 333.057 172.436 333.081 173.636C333.081 174.716 332.781 175.688 332.181 176.552C331.581 177.416 330.729 178.1 329.625 178.604C328.545 179.084 327.297 179.324 325.881 179.324Z" fill="#FFFAFA"/>
</svg>
